<?xml version="1.0" encoding="utf-8"?>
<svg xmlns="http://www.w3.org/2000/svg" version="1.1" width="1280px" height="814px" style="shape-rendering:geometricPrecision; text-rendering:geometricPrecision; image-rendering:optimizeQuality; fill-rule:evenodd; clip-rule:evenodd">
  <g>
    <path style="opacity:1" fill="#bfabf2" d="M 278.5,152.5 C 270.466,152.302 262.466,152.635 254.5,153.5C 255.263,152.732 256.263,152.232 257.5,152C 264.679,151.179 271.679,151.345 278.5,152.5 Z"/>
  </g>
  <g>
    <path style="opacity:1" fill="#f9f8fe" d="M 278.5,152.5 C 294.536,154.267 307.37,161.6 317,174.5C 318.868,177.605 320.035,180.938 320.5,184.5C 321.114,188.135 321.448,191.802 321.5,195.5C 317.629,195.185 313.962,195.518 310.5,196.5C 303.167,196.5 295.833,196.5 288.5,196.5C 288.737,195.209 288.404,194.209 287.5,193.5C 287.206,189.7 285.206,187.2 281.5,186C 270.637,181.551 260.804,183.051 252,190.5C 248.678,198.039 250.511,203.872 257.5,208C 272.653,209.831 287.653,212.498 302.5,216C 322.309,223.855 330.143,238.355 326,259.5C 322.082,276.088 311.915,286.921 295.5,292C 274.076,299.312 253.409,297.645 233.5,287C 225.033,281.543 219.366,274.043 216.5,264.5C 216.073,260.176 215.739,255.842 215.5,251.5C 226.167,251.5 236.833,251.5 247.5,251.5C 251.036,259.012 257.036,263.012 265.5,263.5C 267.473,264.163 269.639,264.496 272,264.5C 275.477,264.672 278.644,264.006 281.5,262.5C 287.228,260.437 290.895,256.437 292.5,250.5C 290.758,246.597 287.758,243.764 283.5,242C 272.722,240.303 262.056,238.803 251.5,237.5C 249.485,236.076 247.152,235.41 244.5,235.5C 229.476,231.494 220.309,221.828 217,206.5C 213.264,177.295 225.764,159.629 254.5,153.5C 262.466,152.635 270.466,152.302 278.5,152.5 Z"/>
  </g>
  <g>
    <path style="opacity:1" fill="#f9f7fd" d="M 501.5,152.5 C 506.844,152.334 512.177,152.501 517.5,153C 538.702,197.242 559.536,241.742 580,286.5C 580.667,288.5 580.667,290.5 580,292.5C 568.576,293.654 557.076,293.82 545.5,293C 542.833,287.333 540.167,281.667 537.5,276C 519.167,275.333 500.833,275.333 482.5,276C 479.265,281.466 476.599,287.133 474.5,293C 462.838,293.5 451.171,293.667 439.5,293.5C 439.301,290.059 439.801,286.726 441,283.5C 461.162,239.842 481.328,196.176 501.5,152.5 Z"/>
  </g>
  <g>
    <path style="opacity:1" fill="#e7e0fa" d="M 439.5,154.5 C 406.671,155.498 373.671,155.832 340.5,155.5C 340.5,165.5 340.5,175.5 340.5,185.5C 351.679,185.172 362.679,185.505 373.5,186.5C 362.167,186.5 350.833,186.5 339.5,186.5C 339.5,175.833 339.5,165.167 339.5,154.5C 372.833,154.5 406.167,154.5 439.5,154.5 Z"/>
  </g>
  <g>
    <path style="opacity:1" fill="#fbfafe" d="M 439.5,154.5 C 440.5,154.5 441.5,154.5 442.5,154.5C 442.5,165.167 442.5,175.833 442.5,186.5C 431.167,186.5 419.833,186.5 408.5,186.5C 408.5,192.167 408.5,197.833 408.5,203.5C 408.825,233.574 408.492,263.574 407.5,293.5C 396.167,293.5 384.833,293.5 373.5,293.5C 373.5,257.833 373.5,222.167 373.5,186.5C 362.679,185.505 351.679,185.172 340.5,185.5C 340.5,175.5 340.5,165.5 340.5,155.5C 373.671,155.832 406.671,155.498 439.5,154.5 Z"/>
  </g>
  <g>
    <path style="opacity:1" fill="#f9f7fd" d="M 723.5,154.5 C 758.167,154.5 792.833,154.5 827.5,154.5C 827.82,165.082 827.487,175.582 826.5,186C 815.505,186.5 804.505,186.667 793.5,186.5C 793.5,222.167 793.5,257.833 793.5,293.5C 781.586,293.821 769.753,293.488 758,292.5C 757.5,257.168 757.333,221.835 757.5,186.5C 746.495,186.667 735.495,186.5 724.5,186C 723.513,175.582 723.18,165.082 723.5,154.5 Z"/>
  </g>
  <g>
    <path style="opacity:1" fill="#fdfcfe" d="M 885.5,292.5 C 883.898,290.926 881.898,290.259 879.5,290.5C 864.548,285.645 854.715,275.645 850,260.5C 848.547,225.198 848.047,189.864 848.5,154.5C 859.5,154.5 870.5,154.5 881.5,154.5C 881.333,185.502 881.5,216.502 882,247.5C 884.903,258.127 891.903,263.46 903,263.5C 912.955,263.7 919.955,259.366 924,250.5C 924.5,218.502 924.667,186.502 924.5,154.5C 936.167,154.5 947.833,154.5 959.5,154.5C 959.667,186.168 959.5,217.835 959,249.5C 956.267,271.236 944.434,285.402 923.5,292C 910.804,296.357 898.137,296.524 885.5,292.5 Z"/>
  </g>
  <g>
    <path style="opacity:1" fill="#fbfafe" d="M 669.5,155.5 C 695.033,160.705 708.366,176.371 709.5,202.5C 709.277,219.612 702.61,233.612 689.5,244.5C 698.44,258.723 707.107,273.056 715.5,287.5C 715.5,289.167 715.5,290.833 715.5,292.5C 702.5,292.5 689.5,292.5 676.5,292.5C 668.363,279.505 660.363,266.338 652.5,253C 646.509,252.501 640.509,252.334 634.5,252.5C 634.829,266.01 634.496,279.344 633.5,292.5C 622.167,292.5 610.833,292.5 599.5,292.5C 599.5,246.833 599.5,201.167 599.5,155.5C 622.833,155.5 646.167,155.5 669.5,155.5 Z"/>
  </g>
  <g>
    <path style="opacity:1" fill="#fdfdfe" d="M 1065.5,155.5 C 1087.29,160.128 1100.13,173.462 1104,195.5C 1106.67,216.145 1100.51,233.645 1085.5,248C 1082.97,249.765 1080.3,251.265 1077.5,252.5C 1075.03,252.755 1073.03,253.755 1071.5,255.5C 1057.4,256.956 1043.4,257.956 1029.5,258.5C 1028.51,269.654 1028.17,280.988 1028.5,292.5C 1017.17,292.5 1005.83,292.5 994.5,292.5C 994.5,246.833 994.5,201.167 994.5,155.5C 1018.17,155.5 1041.83,155.5 1065.5,155.5 Z"/>
  </g>
  <g>
    <path style="opacity:1" fill="#e7e0fa" d="M 669.5,155.5 C 646.167,155.5 622.833,155.5 599.5,155.5C 599.5,201.167 599.5,246.833 599.5,292.5C 610.833,292.5 622.167,292.5 633.5,292.5C 622.012,293.495 610.345,293.828 598.5,293.5C 598.5,247.167 598.5,200.833 598.5,154.5C 622.339,154.169 646.006,154.502 669.5,155.5 Z"/>
  </g>
  <g>
    <path style="opacity: 1; fill: rgb(38, 71, 198);" d="M 306.5,184.5 C 305.082,186.308 303.082,186.975 300.5,186.5C 288.729,172.158 273.729,167.658 255.5,173C 247.706,175.532 242.04,180.366 238.5,187.5C 236.994,190.356 236.328,193.523 236.5,197C 236.504,199.361 236.837,201.527 237.5,203.5C 238.72,210.638 242.72,215.304 249.5,217.5C 251.515,218.924 253.848,219.59 256.5,219.5C 256.833,219.5 257.167,219.5 257.5,219.5C 261.919,220.972 266.586,221.638 271.5,221.5C 277.479,222.298 283.479,222.965 289.5,223.5C 291.936,224.871 294.603,225.871 297.5,226.5C 307.879,231.558 312.879,239.891 312.5,251.5C 311.781,263.423 306.115,272.256 295.5,278C 290.846,279.607 286.18,281.107 281.5,282.5C 275.203,283.32 268.869,283.653 262.5,283.5C 251.158,282.078 241.658,277.078 234,268.5C 233.069,266.541 232.236,264.541 231.5,262.5C 233.421,261.359 235.421,261.192 237.5,262C 240.867,265.703 244.534,269.036 248.5,272C 250.909,273.707 253.575,274.54 256.5,274.5C 257.263,275.268 258.263,275.768 259.5,276C 266.679,276.821 273.679,276.655 280.5,275.5C 298.745,272.434 306.912,261.767 305,243.5C 302.787,236.957 298.287,232.79 291.5,231C 278.837,229.334 266.17,227.667 253.5,226C 239.421,223.254 231.588,214.754 230,200.5C 228.596,185.965 234.43,175.632 247.5,169.5C 249.967,169.245 251.967,168.245 253.5,166.5C 269.122,162.243 283.789,164.409 297.5,173C 301.478,176.136 304.478,179.969 306.5,184.5 Z"/>
  </g>
  <g>
    <path style="opacity:1" fill="#663bdf" d="M 394.5,172.5 C 406.322,171.505 418.322,171.172 430.5,171.5C 430.5,170.167 430.5,168.833 430.5,167.5C 403.833,167.5 377.167,167.5 350.5,167.5C 350.5,169.167 350.5,170.833 350.5,172.5C 349.539,170.735 349.205,168.735 349.5,166.5C 376.833,166.5 404.167,166.5 431.5,166.5C 431.5,168.5 431.5,170.5 431.5,172.5C 419.167,172.5 406.833,172.5 394.5,172.5 Z"/>
  </g>
  <g>
    <path style="opacity:1" fill="#5f32de" d="M 816.5,172.5 C 803.833,172.5 791.167,172.5 778.5,172.5C 790.655,171.505 802.989,171.171 815.5,171.5C 815.5,170.167 815.5,168.833 815.5,167.5C 789.167,167.5 762.833,167.5 736.5,167.5C 736.5,168.833 736.5,170.167 736.5,171.5C 748.678,171.172 760.678,171.505 772.5,172.5C 760.167,172.5 747.833,172.5 735.5,172.5C 735.5,170.5 735.5,168.5 735.5,166.5C 762.5,166.5 789.5,166.5 816.5,166.5C 816.5,168.5 816.5,170.5 816.5,172.5 Z"/>
  </g>
  <g>
    <path style="opacity: 1; fill: rgb(38, 71, 198);" d="M 394.5,172.5 C 394.5,209.167 394.5,245.833 394.5,282.5C 392.167,282.5 389.833,282.5 387.5,282.5C 387.5,245.833 387.5,209.167 387.5,172.5C 375.167,172.5 362.833,172.5 350.5,172.5C 350.5,170.833 350.5,169.167 350.5,167.5C 377.167,167.5 403.833,167.5 430.5,167.5C 430.5,168.833 430.5,170.167 430.5,171.5C 418.322,171.172 406.322,171.505 394.5,172.5 Z"/>
  </g>
  <g>
    <path style="opacity: 1; fill: rgb(38, 71, 198);" d="M 665.5,167.5 C 684.519,171.026 694.519,182.526 695.5,202C 695.316,219.221 687.316,231.055 671.5,237.5C 671.167,238.167 670.833,238.833 670.5,239.5C 678.314,253.793 686.648,267.793 695.5,281.5C 692.388,282.983 689.555,282.65 687,280.5C 678.959,266.917 670.792,253.417 662.5,240C 648.171,239.5 633.837,239.333 619.5,239.5C 619.5,253.833 619.5,268.167 619.5,282.5C 617.5,282.5 615.5,282.5 613.5,282.5C 613.5,244.167 613.5,205.833 613.5,167.5C 630.833,167.5 648.167,167.5 665.5,167.5 Z"/>
  </g>
  <g>
    <path style="opacity: 1; fill: rgb(38, 71, 198);" d="M 778.5,172.5 C 778.17,192.674 778.503,212.674 779.5,232.5C 779.5,249.167 779.5,265.833 779.5,282.5C 777.167,282.5 774.833,282.5 772.5,282.5C 772.5,245.833 772.5,209.167 772.5,172.5C 760.678,171.505 748.678,171.172 736.5,171.5C 736.5,170.167 736.5,168.833 736.5,167.5C 762.833,167.5 789.167,167.5 815.5,167.5C 815.5,168.833 815.5,170.167 815.5,171.5C 802.989,171.171 790.655,171.505 778.5,172.5 Z"/>
  </g>
  <g>
    <path style="opacity:1" fill="#8965e6" d="M 253.5,166.5 C 251.967,168.245 249.967,169.245 247.5,169.5C 249.033,167.755 251.033,166.755 253.5,166.5 Z"/>
  </g>
  <g>
    <path style="opacity: 1; fill: rgb(38, 71, 198);" d="M 562.5,279.5 C 561.082,281.308 559.082,281.975 556.5,281.5C 553.755,275.675 550.755,270.008 547.5,264.5C 535.352,263.168 522.852,262.501 510,262.5C 497.329,262.5 484.829,262.833 472.5,263.5C 469.316,269.206 466.65,275.206 464.5,281.5C 461.753,281.813 459.086,281.48 456.5,280.5C 473.35,244.136 490.183,207.803 507,171.5C 510.417,169.867 512.75,170.867 514,174.5C 530.164,209.496 546.331,244.496 562.5,279.5 Z"/>
  </g>
  <g>
    <path style="opacity:1" fill="#f8f6fd" d="M 619.5,172.5 C 633.837,172.333 648.171,172.5 662.5,173C 682.764,177.333 691.264,189.833 688,210.5C 685.528,220.319 679.695,227.153 670.5,231C 653.57,232.457 636.57,232.957 619.5,232.5C 619.5,212.5 619.5,192.5 619.5,172.5 Z"/>
  </g>
  <g>
    <path style="opacity:1" fill="#faf8fe" d="M 542.5,252.5 C 532.021,253.832 521.188,254.499 510,254.5C 498.812,254.499 487.979,253.832 477.5,252.5C 487.612,228.941 498.279,205.608 509.5,182.5C 521.058,205.613 532.058,228.947 542.5,252.5 Z"/>
  </g>
  <g>
    <path style="opacity:1" fill="#c4b3f2" d="M 306.5,184.5 C 307.404,185.209 307.737,186.209 307.5,187.5C 304.941,187.802 302.607,187.468 300.5,186.5C 303.082,186.975 305.082,186.308 306.5,184.5 Z"/>
  </g>
  <g>
    <path style="opacity: 1; fill: rgb(38, 71, 198);" d="M 634.5,186.5 C 644.506,186.334 654.506,186.5 664.5,187C 673.03,191.226 676.197,198.059 674,207.5C 672.222,212.6 669.055,216.434 664.5,219C 654.506,219.5 644.506,219.666 634.5,219.5C 634.5,208.5 634.5,197.5 634.5,186.5 Z"/>
  </g>
  <g>
    <path style="opacity: 1; fill: rgb(38, 71, 198);" d="M 1029.5,186.5 C 1039.84,186.334 1050.17,186.5 1060.5,187C 1066.61,191.126 1069.61,196.96 1069.5,204.5C 1069.03,211.426 1066.69,217.593 1062.5,223C 1060.91,223.862 1059.25,224.529 1057.5,225C 1048.17,225.5 1038.84,225.666 1029.5,225.5C 1029.5,212.5 1029.5,199.5 1029.5,186.5 Z"/>
  </g>
  <g>
    <path style="opacity:1" fill="#cbbaf4" d="M 320.5,184.5 C 321.926,186.679 322.592,189.179 322.5,192C 322.492,193.707 322.158,195.207 321.5,196.5C 317.833,196.5 314.167,196.5 310.5,196.5C 313.962,195.518 317.629,195.185 321.5,195.5C 321.448,191.802 321.114,188.135 320.5,184.5 Z"/>
  </g>
  <g>
    <path style="opacity:1" fill="#bda9f1" d="M 238.5,187.5 C 237.725,192.797 237.392,198.13 237.5,203.5C 236.837,201.527 236.504,199.361 236.5,197C 236.328,193.523 236.994,190.356 238.5,187.5 Z"/>
  </g>
  <g>
    <path style="opacity:1" fill="#7751e3" d="M 287.5,193.5 C 288.404,194.209 288.737,195.209 288.5,196.5C 295.833,196.5 303.167,196.5 310.5,196.5C 314.167,196.5 317.833,196.5 321.5,196.5C 310.346,197.495 299.012,197.828 287.5,197.5C 287.5,196.167 287.5,194.833 287.5,193.5 Z"/>
  </g>
  <g>
    <path style="opacity:1" fill="#bdaaf1" d="M 778.5,172.5 C 791.167,172.5 803.833,172.5 816.5,172.5C 804.345,173.495 792.011,173.829 779.5,173.5C 779.5,193.167 779.5,212.833 779.5,232.5C 778.503,212.674 778.17,192.674 778.5,172.5 Z"/>
  </g>
  <g>
    <path style="opacity: 1; fill: rgb(38, 71, 198);" d="M 522.5,240.5 C 518.724,241.825 514.557,242.491 510,242.5C 505.443,242.491 501.276,241.825 497.5,240.5C 500.332,231.014 504.332,222.014 509.5,213.5C 510.892,214.605 512.059,215.939 513,217.5C 515.893,225.362 519.06,233.029 522.5,240.5 Z"/>
  </g>
  <g>
    <path style="opacity:1" fill="#bba6f1" d="M 249.5,217.5 C 252.152,217.41 254.485,218.076 256.5,219.5C 253.848,219.59 251.515,218.924 249.5,217.5 Z"/>
  </g>
  <g>
    <path style="opacity:1" fill="#b49df0" d="M 257.5,219.5 C 262.414,219.362 267.081,220.028 271.5,221.5C 266.586,221.638 261.919,220.972 257.5,219.5 Z"/>
  </g>
  <g>
    <path style="opacity:1" fill="#c2b0f2" d="M 289.5,223.5 C 292.716,223.345 295.383,224.345 297.5,226.5C 294.603,225.871 291.936,224.871 289.5,223.5 Z"/>
  </g>
  <g>
    <path style="opacity:1" fill="#7b55e4" d="M 665.5,167.5 C 648.167,167.5 630.833,167.5 613.5,167.5C 613.5,205.833 613.5,244.167 613.5,282.5C 612.501,244.004 612.168,205.337 612.5,166.5C 630.341,166.17 648.008,166.503 665.5,167.5 Z"/>
  </g>
  <g>
    <path style="opacity:1" fill="#bda9f2" d="M 244.5,235.5 C 247.152,235.41 249.485,236.076 251.5,237.5C 248.848,237.59 246.515,236.924 244.5,235.5 Z"/>
  </g>
  <g>
    <path style="opacity:1" fill="#dfd6f8" d="M 1065.5,155.5 C 1041.83,155.5 1018.17,155.5 994.5,155.5C 994.5,201.167 994.5,246.833 994.5,292.5C 994.167,292.5 993.833,292.5 993.5,292.5C 993.5,246.5 993.5,200.5 993.5,154.5C 1017.67,154.169 1041.67,154.502 1065.5,155.5 Z"/>
  </g>
  <g>
    <path style="opacity:1" fill="#e2d9f9" d="M 350.5,172.5 C 362.833,172.5 375.167,172.5 387.5,172.5C 387.5,209.167 387.5,245.833 387.5,282.5C 386.502,246.337 386.168,210.004 386.5,173.5C 374.322,173.828 362.322,173.495 350.5,172.5 Z"/>
  </g>
  <g>
    <path style="opacity:1" fill="#8e6ee8" d="M 497.5,240.5 C 501.276,241.825 505.443,242.491 510,242.5C 514.557,242.491 518.724,241.825 522.5,240.5C 523.404,241.209 523.737,242.209 523.5,243.5C 514.5,243.5 505.5,243.5 496.5,243.5C 496.263,242.209 496.596,241.209 497.5,240.5 Z"/>
  </g>
  <g>
    <path style="opacity:1" fill="#b39def" d="M 247.5,251.5 C 236.833,251.5 226.167,251.5 215.5,251.5C 215.739,255.842 216.073,260.176 216.5,264.5C 214.789,260.119 214.123,255.453 214.5,250.5C 225.679,250.172 236.679,250.505 247.5,251.5 Z"/>
  </g>
  <g>
    <path style="opacity:1" fill="#916ee8" d="M 1077.5,252.5 C 1075.97,254.245 1073.97,255.245 1071.5,255.5C 1073.03,253.755 1075.03,252.755 1077.5,252.5 Z"/>
  </g>
  <g>
    <path style="opacity:1" fill="#c3b3f3" d="M 477.5,252.5 C 487.979,253.832 498.812,254.499 510,254.5C 521.188,254.499 532.021,253.832 542.5,252.5C 543.404,253.209 543.737,254.209 543.5,255.5C 521.167,255.5 498.833,255.5 476.5,255.5C 476.263,254.209 476.596,253.209 477.5,252.5 Z"/>
  </g>
  <g>
    <path style="opacity:1" fill="#653be0" d="M 408.5,203.5 C 409.167,218.33 409.5,233.33 409.5,248.5C 409.499,263.849 408.833,278.849 407.5,293.5C 408.492,263.574 408.825,233.574 408.5,203.5 Z"/>
  </g>
  <g>
    <path style="opacity:1" fill="#ddd3f8" d="M 472.5,263.5 C 484.829,262.833 497.329,262.5 510,262.5C 522.852,262.501 535.352,263.168 547.5,264.5C 522.575,263.51 497.575,263.177 472.5,263.5 Z"/>
  </g>
  <g>
    <path style="opacity:1" fill="#c3b1f3" d="M 281.5,262.5 C 278.644,264.006 275.477,264.672 272,264.5C 269.639,264.496 267.473,264.163 265.5,263.5C 270.87,263.608 276.203,263.275 281.5,262.5 Z"/>
  </g>
  <g>
    <path style="opacity:1" fill="#d2c5f6" d="M 256.5,274.5 C 264.466,275.365 272.466,275.698 280.5,275.5C 273.679,276.655 266.679,276.821 259.5,276C 258.263,275.768 257.263,275.268 256.5,274.5 Z"/>
  </g>
  <g>
    <path style="opacity:1" fill="#b099ee" d="M 562.5,279.5 C 563.404,280.209 563.737,281.209 563.5,282.5C 560.941,282.802 558.607,282.468 556.5,281.5C 559.082,281.975 561.082,281.308 562.5,279.5 Z"/>
  </g>
  <g>
    <path style="opacity:1" fill="#cbbaf4" d="M 281.5,282.5 C 281.389,283.117 281.056,283.617 280.5,284C 274.319,284.819 268.319,284.653 262.5,283.5C 268.869,283.653 275.203,283.32 281.5,282.5 Z"/>
  </g>
  <g>
    <path style="opacity:1" fill="#c6b4f3" d="M 879.5,290.5 C 881.898,290.259 883.898,290.926 885.5,292.5C 883.102,292.741 881.102,292.074 879.5,290.5 Z"/>
  </g>
  <g>
    <path style="opacity:1" fill="#bba8f1" d="M 715.5,287.5 C 716.461,289.265 716.795,291.265 716.5,293.5C 702.99,293.829 689.656,293.496 676.5,292.5C 689.5,292.5 702.5,292.5 715.5,292.5C 715.5,290.833 715.5,289.167 715.5,287.5 Z"/>
  </g>
  <g>
    <path style="opacity:1" fill="#c5b4f3" d="M 1029.5,258.5 C 1029.5,270.167 1029.5,281.833 1029.5,293.5C 1017.32,293.828 1005.32,293.495 993.5,292.5C 993.833,292.5 994.167,292.5 994.5,292.5C 1005.83,292.5 1017.17,292.5 1028.5,292.5C 1028.17,280.988 1028.51,269.654 1029.5,258.5 Z"/>
  </g>
  <g>
    <path style="opacity:1" d="M 631.5,658.5 C 588.833,658.5 546.167,658.5 503.5,658.5C 503.5,654.5 503.5,650.5 503.5,646.5C 554.226,534.371 605.559,422.371 657.5,310.5C 670.487,309.334 683.487,309.167 696.5,310C 748.172,421.847 800.005,533.681 852,645.5C 852.667,649.5 852.667,653.5 852,657.5C 808.904,658.663 765.738,658.83 722.5,658C 707.971,626.23 692.971,594.73 677.5,563.5C 662.153,595.235 646.82,626.902 631.5,658.5 Z" fill="#fdfdfe"/>
  </g>
  <g>
    <path style="opacity:1" fill="#c6b6f3" d="M 1009.5,314.5 C 1041.33,313.502 1073.33,313.168 1105.5,313.5C 1105.82,318.032 1105.48,322.366 1104.5,326.5C 1104.5,322.5 1104.5,318.5 1104.5,314.5C 1072.83,314.5 1041.17,314.5 1009.5,314.5 Z"/>
  </g>
  <g>
    <path style="opacity:1" fill="#fefefe" d="M 364.5,314.5 C 365.5,314.5 366.5,314.5 367.5,314.5C 370.946,315.687 374.613,316.354 378.5,316.5C 448.395,329.058 492.395,369.725 510.5,438.5C 510.41,441.152 511.076,443.485 512.5,445.5C 512.5,445.833 512.5,446.167 512.5,446.5C 514.19,458.265 515.524,469.932 516.5,481.5C 517.608,529.355 502.774,571.355 472,607.5C 456.003,624.027 437.503,636.694 416.5,645.5C 412.605,646.462 408.939,647.796 405.5,649.5C 391.197,653.926 376.531,656.593 361.5,657.5C 314.167,657.5 266.833,657.5 219.5,657.5C 219.5,543.167 219.5,428.833 219.5,314.5C 267.833,314.5 316.167,314.5 364.5,314.5 Z"/>
  </g>
  <g>
    <path style="opacity:1" fill="#9d7eeb" d="M 367.5,314.5 C 371.489,314.116 375.155,314.783 378.5,316.5C 374.613,316.354 370.946,315.687 367.5,314.5 Z"/>
  </g>
  <g>
    <path style="opacity:1" fill="#fefdfe" d="M 1009.5,314.5 C 1041.17,314.5 1072.83,314.5 1104.5,314.5C 1104.5,318.5 1104.5,322.5 1104.5,326.5C 1066.68,388.807 1028.35,450.807 989.5,512.5C 988.501,560.664 988.168,608.997 988.5,657.5C 959.833,657.5 931.167,657.5 902.5,657.5C 901.667,609.335 901.167,561.002 901,512.5C 863.251,450.666 825.251,388.999 787,327.5C 786.501,322.845 786.334,318.179 786.5,313.5C 817.835,313.333 849.168,313.5 880.5,314C 884.459,320.083 888.292,326.249 892,332.5C 908.588,362.674 924.921,393.007 941,423.5C 942.013,425.846 943.679,427.513 946,428.5C 967.435,390.627 988.602,352.627 1009.5,314.5 Z"/>
  </g>
  <g>
    <path style="opacity:1" fill="#cfc2f5" d="M 364.5,314.5 C 316.167,314.5 267.833,314.5 219.5,314.5C 219.5,428.833 219.5,543.167 219.5,657.5C 266.833,657.5 314.167,657.5 361.5,657.5C 360.081,658.451 358.415,658.784 356.5,658.5C 310.5,658.5 264.5,658.5 218.5,658.5C 218.5,543.833 218.5,429.167 218.5,314.5C 267.167,313.167 315.833,313.167 364.5,314.5 Z"/>
  </g>
  <g>
    <path style="opacity: 1; fill: rgb(38, 71, 198);" d="M 360.5,394.5 C 362.435,395.15 364.435,395.483 366.5,395.5C 370.828,396.477 375.161,397.811 379.5,399.5C 408.26,413.472 425.094,436.472 430,468.5C 432.711,489.598 430.044,509.932 422,529.5C 409.405,557.54 387.905,573.54 357.5,577.5C 340.833,577.5 324.167,577.5 307.5,577.5C 307.5,516.5 307.5,455.5 307.5,394.5C 325.167,394.5 342.833,394.5 360.5,394.5 Z"/>
  </g>
  <g>
    <path style="opacity:1" fill="#d3c4f6" d="M 366.5,395.5 C 371.636,394.663 375.969,395.997 379.5,399.5C 375.161,397.811 370.828,396.477 366.5,395.5 Z"/>
  </g>
  <g>
    <path style="opacity: 1; fill: rgb(38, 71, 198);" d="M 648.5,531.5 C 647.662,531.158 647.328,530.492 647.5,529.5C 650.442,520.948 653.942,512.615 658,504.5C 651.668,473.913 657.335,445.913 675,420.5C 675.739,419.426 676.739,418.759 678,418.5C 692.028,434.238 699.195,452.738 699.5,474C 698.628,484.168 698.128,494.334 698,504.5C 701.804,512.757 705.304,521.09 708.5,529.5C 707.635,530.583 706.635,530.749 705.5,530C 701.145,526.987 696.478,524.82 691.5,523.5C 691.5,525.167 691.5,526.833 691.5,528.5C 682.167,528.5 672.833,528.5 663.5,528.5C 663.5,527.167 663.5,525.833 663.5,524.5C 658.162,526.001 653.162,528.335 648.5,531.5 Z"/>
  </g>
  <g>
    <path style="opacity:1" fill="#7e59e5" d="M 360.5,394.5 C 342.833,394.5 325.167,394.5 307.5,394.5C 307.5,455.5 307.5,516.5 307.5,577.5C 324.167,577.5 340.833,577.5 357.5,577.5C 340.675,578.497 323.675,578.83 306.5,578.5C 306.5,516.833 306.5,455.167 306.5,393.5C 324.674,393.17 342.674,393.503 360.5,394.5 Z"/>
  </g>
  <g>
    <path style="opacity:1" fill="#c8b7f4" d="M 510.5,438.5 C 511.924,440.515 512.59,442.848 512.5,445.5C 511.076,443.485 510.41,441.152 510.5,438.5 Z"/>
  </g>
  <g>
    <path style="opacity:1" d="M 673.5,448.5 C 685.025,448.178 689.859,453.511 688,464.5C 680.787,473.666 673.787,473.666 667,464.5C 665.062,457.389 667.229,452.056 673.5,448.5 Z" fill="#f7f4fd"/>
  </g>
  <g>
    <path style="opacity:1" fill="#d2c3f6" d="M 512.5,446.5 C 515.685,457.819 517.018,469.486 516.5,481.5C 515.524,469.932 514.19,458.265 512.5,446.5 Z"/>
  </g>
  <g>
    <path style="opacity:1" fill="#ac94ee" d="M 647.5,529.5 C 647.328,530.492 647.662,531.158 648.5,531.5C 647.698,532.885 647.031,532.718 646.5,531C 646.57,530.235 646.903,529.735 647.5,529.5 Z"/>
  </g>
  <g>
    <path style="opacity: 1; fill: rgb(38, 71, 198);" d="M 669.5,531.5 C 675.167,531.5 680.833,531.5 686.5,531.5C 684.799,537.542 681.799,542.875 677.5,547.5C 673.751,542.669 671.084,537.335 669.5,531.5 Z"/>
  </g>
  <g>
    <path style="opacity:1" fill="#d0c2f5" d="M 989.5,512.5 C 989.5,561.167 989.5,609.833 989.5,658.5C 960.329,658.831 931.329,658.498 902.5,657.5C 931.167,657.5 959.833,657.5 988.5,657.5C 988.168,608.997 988.501,560.664 989.5,512.5 Z"/>
  </g>
  <g>
    <path style="opacity:1" fill="#8b66e7" d="M 416.5,645.5 C 413.374,647.99 409.708,649.323 405.5,649.5C 408.939,647.796 412.605,646.462 416.5,645.5 Z"/>
  </g>
  <g>
    <path style="opacity:1" fill="#5e31de" d="M 218.5,314.5 C 218.5,429.167 218.5,543.833 218.5,658.5C 264.5,658.5 310.5,658.5 356.5,658.5C 310.336,659.499 264.003,659.832 217.5,659.5C 217.167,544.332 217.5,429.332 218.5,314.5 Z"/>
  </g>
  <g>
    <path style="opacity:1" fill="#5f31de" d="M 503.5,646.5 C 503.5,650.5 503.5,654.5 503.5,658.5C 546.167,658.5 588.833,658.5 631.5,658.5C 588.67,659.499 545.67,659.832 502.5,659.5C 502.182,654.968 502.515,650.634 503.5,646.5 Z"/>
  </g>
  <text style="fill: rgb(255, 255, 255); font-family: Arial, sans-serif; font-size: 69.5px; white-space: pre;" x="500" y="763">12ª Edição</text>
</svg>